<?xml version="1.0" encoding="UTF-8"?>
<svg width="220" height="60" viewBox="0 0 220 60" xmlns="http://www.w3.org/2000/svg">
    <style>
        .container {
            fill: #e0f2f7;
        }
        .title {
            font-family: 'Segoe UI', Tahoma, Geneva, Verdana, sans-serif;
            font-weight: 700;
            font-size: 24px;
            fill: #3498db;
        }
        .subtitle {
            font-family: 'Segoe UI', Tahoma, Geneva, Verdana, sans-serif;
            font-weight: 500;
            font-size: 9px;
            fill: #777777;
            letter-spacing: 1.5px;
        }
        .icon-bg {
            fill: #3498db;
            transition: fill 0.3s ease-in-out;
        }
        .icon-fg {
            fill: #ffffff;
        }
        .icon-bg:hover {
            fill: #2980b9;
        }
    </style>

    <rect class="container" width="100%" height="100%" />

    <rect class="icon-bg" x="10" y="10" width="40" height="40" rx="10"/>

    <g class="icon-fg">
        <path d="M 18 22 h 24 a 2 2 0 0 1 2 2 v 16 a 2 2 2 0 0 1 -2 2 h -24 a 2 2 0 0 1 -2 -2 v -16 a 2 2 0 0 1 2 -2 z" />
        <rect x="22" y="26" width="16" height="4" fill="#ffffff" />
        <rect x="20" y="32" width="20" height="6" fill="#ecf0f1" />
        <rect x="24" y="33" width="4" height="2" fill="#bdc3c7" />
        <rect x="32" y="33" width="4" height="2" fill="#bdc3c7" />
        <path d="M 16 42 v 4 h 28 v -4 h -28 z" fill="#555555" />
    </g>

    <text x="65" y="35" class="title">Cashier</text>
    <text x="65" y="48" class="subtitle">Point of Sale</text>
</svg>